<svg width="187" height="39" viewBox="0 0 187 39" fill="none" xmlns="http://www.w3.org/2000/svg">
<path d="M16.7982 0L0.473389 9.51857L16.8796 18.8354L18.4939 17.8924L33.2277 9.34008L16.7982 0Z" fill="#FDB515"/>
<path d="M16.4528 38.3149L16.3946 19.4562L0 10.1356V28.9515L16.4528 38.3149Z" fill="#FDB515"/>
<path d="M33.9882 9.70871L17.2328 19.4407L17.2716 38.7417L34.4384 28.9011L33.9882 9.70871Z" fill="#969696"/>
<path d="M41.517 27V9.54545H45.2074V16.7472H52.6989V9.54545H56.3807V27H52.6989V19.7898H45.2074V27H41.517ZM67.75 21.4261V13.9091H71.3807V27H67.8949V24.6222H67.7585C67.4631 25.3892 66.9716 26.0057 66.2841 26.4716C65.6023 26.9375 64.7699 27.1705 63.7869 27.1705C62.9119 27.1705 62.142 26.9716 61.4773 26.5739C60.8125 26.1761 60.2926 25.6108 59.9176 24.8778C59.5483 24.1449 59.3608 23.267 59.3551 22.2443V13.9091H62.9858V21.5966C62.9915 22.3693 63.1989 22.9801 63.608 23.429C64.017 23.8778 64.5653 24.1023 65.2528 24.1023C65.6903 24.1023 66.0994 24.0028 66.4801 23.804C66.8608 23.5994 67.1676 23.2983 67.4006 22.9006C67.6392 22.5028 67.7557 22.0114 67.75 21.4261ZM77.9155 19.4318V27H74.2848V13.9091H77.745V16.2188H77.8984C78.1882 15.4574 78.674 14.8551 79.3558 14.4119C80.0376 13.9631 80.8643 13.7386 81.8359 13.7386C82.745 13.7386 83.5376 13.9375 84.2138 14.3352C84.8899 14.733 85.4155 15.3011 85.7905 16.0398C86.1655 16.7727 86.353 17.6477 86.353 18.6648V27H82.7223V19.3125C82.728 18.5114 82.5234 17.8864 82.1087 17.4375C81.6939 16.983 81.1229 16.7557 80.3956 16.7557C79.907 16.7557 79.4751 16.8608 79.1001 17.071C78.7308 17.2812 78.4411 17.5881 78.2308 17.9915C78.0263 18.3892 77.9212 18.8693 77.9155 19.4318ZM95.1122 32.1818C93.9361 32.1818 92.9276 32.0199 92.0866 31.696C91.2514 31.3778 90.5866 30.9432 90.0923 30.392C89.598 29.8409 89.277 29.2216 89.1293 28.5341L92.4872 28.0824C92.5895 28.3438 92.7514 28.5881 92.973 28.8153C93.1946 29.0426 93.4872 29.2244 93.8509 29.3608C94.2202 29.5028 94.669 29.5739 95.1974 29.5739C95.9872 29.5739 96.6378 29.3807 97.1491 28.9943C97.6662 28.6136 97.9247 27.9744 97.9247 27.0767V24.6818H97.7713C97.6122 25.0455 97.3736 25.3892 97.0554 25.7131C96.7372 26.0369 96.3281 26.3011 95.8281 26.5057C95.3281 26.7102 94.7315 26.8125 94.0384 26.8125C93.0554 26.8125 92.1605 26.5852 91.3537 26.1307C90.5526 25.6705 89.9134 24.9687 89.4361 24.0256C88.9645 23.0767 88.7287 21.8778 88.7287 20.429C88.7287 18.946 88.9702 17.7074 89.4531 16.7131C89.9361 15.7187 90.5781 14.9744 91.3793 14.4801C92.1861 13.9858 93.0696 13.7386 94.0298 13.7386C94.7628 13.7386 95.3764 13.8636 95.8707 14.1136C96.3651 14.358 96.7628 14.6648 97.0639 15.0341C97.3707 15.3977 97.6065 15.7557 97.7713 16.108H97.9077V13.9091H101.513V27.1278C101.513 28.2415 101.24 29.1733 100.695 29.9233C100.149 30.6733 99.3935 31.2358 98.4276 31.6108C97.4673 31.9915 96.3622 32.1818 95.1122 32.1818ZM95.1889 24.0852C95.7741 24.0852 96.2685 23.9403 96.6719 23.6506C97.081 23.3551 97.3935 22.9347 97.6094 22.3892C97.831 21.8381 97.9418 21.179 97.9418 20.4119C97.9418 19.6449 97.8338 18.9801 97.6179 18.4176C97.402 17.8494 97.0895 17.4091 96.6804 17.0966C96.2713 16.7841 95.7741 16.6278 95.1889 16.6278C94.5923 16.6278 94.0895 16.7898 93.6804 17.1136C93.2713 17.4318 92.9616 17.875 92.7514 18.4432C92.5412 19.0114 92.4361 19.6676 92.4361 20.4119C92.4361 21.1676 92.5412 21.821 92.7514 22.3722C92.9673 22.9176 93.277 23.3409 93.6804 23.642C94.0895 23.9375 94.5923 24.0852 95.1889 24.0852ZM110.025 27V9.54545H113.715V16.7472H121.207V9.54545H124.888V27H121.207V19.7898H113.715V27H110.025ZM136.258 21.4261V13.9091H139.888V27H136.403V24.6222H136.266C135.971 25.3892 135.479 26.0057 134.792 26.4716C134.11 26.9375 133.278 27.1705 132.295 27.1705C131.42 27.1705 130.65 26.9716 129.985 26.5739C129.32 26.1761 128.8 25.6108 128.425 24.8778C128.056 24.1449 127.869 23.267 127.863 22.2443V13.9091H131.494V21.5966C131.499 22.3693 131.707 22.9801 132.116 23.429C132.525 23.8778 133.073 24.1023 133.761 24.1023C134.198 24.1023 134.607 24.0028 134.988 23.804C135.369 23.5994 135.675 23.2983 135.908 22.9006C136.147 22.5028 136.263 22.0114 136.258 21.4261ZM148.707 27.2557C147.384 27.2557 146.239 26.9744 145.273 26.4119C144.313 25.8437 143.571 25.054 143.048 24.0426C142.526 23.0256 142.264 21.8466 142.264 20.5057C142.264 19.1534 142.526 17.9716 143.048 16.9602C143.571 15.9432 144.313 15.1534 145.273 14.5909C146.239 14.0227 147.384 13.7386 148.707 13.7386C150.031 13.7386 151.173 14.0227 152.134 14.5909C153.099 15.1534 153.844 15.9432 154.366 16.9602C154.889 17.9716 155.151 19.1534 155.151 20.5057C155.151 21.8466 154.889 23.0256 154.366 24.0426C153.844 25.054 153.099 25.8437 152.134 26.4119C151.173 26.9744 150.031 27.2557 148.707 27.2557ZM148.724 24.4432C149.327 24.4432 149.83 24.2727 150.233 23.9318C150.636 23.5852 150.94 23.1136 151.145 22.517C151.355 21.9205 151.46 21.2415 151.46 20.4801C151.46 19.7188 151.355 19.0398 151.145 18.4432C150.94 17.8466 150.636 17.375 150.233 17.0284C149.83 16.6818 149.327 16.5085 148.724 16.5085C148.116 16.5085 147.605 16.6818 147.19 17.0284C146.781 17.375 146.472 17.8466 146.261 18.4432C146.057 19.0398 145.955 19.7188 145.955 20.4801C145.955 21.2415 146.057 21.9205 146.261 22.517C146.472 23.1136 146.781 23.5852 147.19 23.9318C147.605 24.2727 148.116 24.4432 148.724 24.4432ZM161.142 19.4318V27H157.511V13.9091H160.972V16.2188H161.125C161.415 15.4574 161.901 14.8551 162.582 14.4119C163.264 13.9631 164.091 13.7386 165.062 13.7386C165.972 13.7386 166.764 13.9375 167.44 14.3352C168.116 14.733 168.642 15.3011 169.017 16.0398C169.392 16.7727 169.58 17.6477 169.58 18.6648V27H165.949V19.3125C165.955 18.5114 165.75 17.8864 165.335 17.4375C164.92 16.983 164.349 16.7557 163.622 16.7557C163.134 16.7557 162.702 16.8608 162.327 17.071C161.957 17.2812 161.668 17.5881 161.457 17.9915C161.253 18.3892 161.148 18.8693 161.142 19.4318ZM178.339 32.1818C177.163 32.1818 176.154 32.0199 175.313 31.696C174.478 31.3778 173.813 30.9432 173.319 30.392C172.825 29.8409 172.504 29.2216 172.356 28.5341L175.714 28.0824C175.816 28.3438 175.978 28.5881 176.2 28.8153C176.421 29.0426 176.714 29.2244 177.077 29.3608C177.447 29.5028 177.896 29.5739 178.424 29.5739C179.214 29.5739 179.864 29.3807 180.376 28.9943C180.893 28.6136 181.151 27.9744 181.151 27.0767V24.6818H180.998C180.839 25.0455 180.6 25.3892 180.282 25.7131C179.964 26.0369 179.555 26.3011 179.055 26.5057C178.555 26.7102 177.958 26.8125 177.265 26.8125C176.282 26.8125 175.387 26.5852 174.58 26.1307C173.779 25.6705 173.14 24.9687 172.663 24.0256C172.191 23.0767 171.955 21.8778 171.955 20.429C171.955 18.946 172.197 17.7074 172.68 16.7131C173.163 15.7187 173.805 14.9744 174.606 14.4801C175.413 13.9858 176.296 13.7386 177.256 13.7386C177.989 13.7386 178.603 13.8636 179.097 14.1136C179.592 14.358 179.989 14.6648 180.29 15.0341C180.597 15.3977 180.833 15.7557 180.998 16.108H181.134V13.9091H184.739V27.1278C184.739 28.2415 184.467 29.1733 183.921 29.9233C183.376 30.6733 182.62 31.2358 181.654 31.6108C180.694 31.9915 179.589 32.1818 178.339 32.1818ZM178.415 24.0852C179.001 24.0852 179.495 23.9403 179.898 23.6506C180.308 23.3551 180.62 22.9347 180.836 22.3892C181.058 21.8381 181.168 21.179 181.168 20.4119C181.168 19.6449 181.06 18.9801 180.844 18.4176C180.629 17.8494 180.316 17.4091 179.907 17.0966C179.498 16.7841 179.001 16.6278 178.415 16.6278C177.819 16.6278 177.316 16.7898 176.907 17.1136C176.498 17.4318 176.188 17.875 175.978 18.4432C175.768 19.0114 175.663 19.6676 175.663 20.4119C175.663 21.1676 175.768 21.821 175.978 22.3722C176.194 22.9176 176.504 23.3409 176.907 23.642C177.316 23.9375 177.819 24.0852 178.415 24.0852Z" fill="#FDB515"/>
</svg>
