<?xml version="1.0" encoding="UTF-8"?>
<svg xmlns="http://www.w3.org/2000/svg" xmlns:xlink="http://www.w3.org/1999/xlink" width="150px" height="39px" viewBox="0 0 151 39" version="1.1">
<g id="surface1">
<path style=" stroke:none;fill-rule:nonzero;fill:rgb(99.215686%,70.980392%,8.235294%);fill-opacity:1;" d="M 17.207031 0 L 0.773438 9.582031 L 17.289062 18.960938 L 18.914062 18.011719 L 33.746094 9.402344 Z M 17.207031 0 "/>
<path style=" stroke:none;fill-rule:nonzero;fill:rgb(99.215686%,70.980392%,8.235294%);fill-opacity:1;" d="M 16.859375 38.570312 L 16.800781 19.585938 L 0.296875 10.203125 L 0.296875 29.144531 Z M 16.859375 38.570312 "/>
<path style=" stroke:none;fill-rule:nonzero;fill:rgb(58.823529%,58.823529%,58.823529%);fill-opacity:1;" d="M 34.511719 9.773438 L 17.644531 19.570312 L 17.683594 39 L 34.964844 29.09375 Z M 34.511719 9.773438 "/>
<path style=" stroke:none;fill-rule:nonzero;fill:rgb(99.215686%,70.980392%,8.235294%);fill-opacity:1;" d="M 46.769531 22.878906 L 51.875 22.878906 L 51.875 24.339844 C 51.875 25.726562 52.082031 26.675781 52.503906 27.1875 C 52.925781 27.699219 53.652344 27.957031 54.683594 27.957031 C 55.714844 27.957031 56.582031 27.734375 57.140625 27.289062 C 57.703125 26.84375 57.984375 26.164062 57.984375 25.273438 C 57.984375 24.605469 57.785156 24.027344 57.398438 23.539062 C 57.007812 23.054688 56.160156 22.417969 54.855469 21.640625 L 52.238281 20.105469 C 50.011719 18.8125 48.582031 17.738281 47.964844 16.886719 C 47.34375 16.039062 47.03125 14.980469 47.03125 13.703125 C 47.03125 11.804688 47.71875 10.308594 49.078125 9.21875 C 50.441406 8.128906 52.320312 7.585938 54.714844 7.585938 C 57.230469 7.585938 59.171875 8.164062 60.535156 9.308594 C 61.894531 10.464844 62.582031 12.117188 62.582031 14.269531 L 62.5625 14.773438 L 62.546875 15.089844 L 57.710938 15.089844 L 57.710938 14.484375 C 57.710938 13.257812 57.472656 12.371094 56.984375 11.84375 C 56.496094 11.316406 55.699219 11.042969 54.582031 11.042969 C 53.765625 11.042969 53.121094 11.242188 52.652344 11.636719 C 52.183594 12.035156 51.949219 12.585938 51.949219 13.304688 C 51.949219 14.238281 53 15.304688 55.09375 16.484375 L 55.152344 16.515625 L 57.96875 18.09375 C 59.957031 19.183594 61.308594 20.222656 62.027344 21.203125 C 62.746094 22.1875 63.101562 23.441406 63.101562 24.953125 C 63.101562 27.015625 62.390625 28.617188 60.960938 29.738281 C 59.542969 30.863281 57.503906 31.421875 54.863281 31.421875 C 52.222656 31.421875 50.09375 30.828125 48.742188 29.640625 C 47.378906 28.453125 46.703125 26.652344 46.703125 24.242188 L 46.777344 22.972656 L 46.777344 22.878906 Z M 46.769531 22.878906 "/>
<path style=" stroke:none;fill-rule:nonzero;fill:rgb(99.215686%,70.980392%,8.235294%);fill-opacity:1;" d="M 66.039062 30.871094 L 66.039062 26.792969 L 70.625 26.792969 L 70.625 30.871094 Z M 66.039062 30.871094 "/>
<path style=" stroke:none;fill-rule:nonzero;fill:rgb(99.215686%,70.980392%,8.235294%);fill-opacity:1;" d="M 74.09375 30.871094 L 74.09375 8.128906 L 79.160156 8.128906 L 79.160156 17.042969 L 86.148438 17.042969 L 86.148438 8.128906 L 91.21875 8.128906 L 91.21875 30.871094 L 86.148438 30.871094 L 86.148438 20.5625 L 79.160156 20.5625 L 79.160156 30.871094 Z M 74.09375 30.871094 "/>
<path style=" stroke:none;fill-rule:nonzero;fill:rgb(99.215686%,70.980392%,8.235294%);fill-opacity:1;" d="M 93.875 22.335938 C 93.875 18.902344 94.410156 16.539062 95.484375 15.253906 C 96.558594 13.964844 98.429688 13.332031 101.113281 13.332031 C 103.792969 13.332031 105.699219 13.964844 106.765625 15.246094 C 107.832031 16.523438 108.367188 18.886719 108.367188 22.335938 C 108.367188 25.785156 107.832031 28.128906 106.765625 29.410156 C 105.699219 30.6875 103.8125 31.332031 101.113281 31.332031 C 98.414062 31.332031 96.574219 30.695312 95.492188 29.425781 C 94.410156 28.152344 93.875 25.792969 93.875 22.335938 Z M 98.753906 22.160156 L 98.753906 22.558594 C 98.753906 25.183594 98.910156 26.800781 99.230469 27.402344 C 99.554688 28.003906 100.164062 28.304688 101.078125 28.304688 C 101.996094 28.304688 102.671875 28.03125 103.003906 27.476562 C 103.167969 27.1875 103.292969 26.691406 103.375 25.984375 C 103.457031 25.273438 103.496094 24.324219 103.496094 23.136719 L 103.496094 21.46875 C 103.496094 19.222656 103.324219 17.820312 102.984375 17.257812 C 102.664062 16.679688 102.046875 16.382812 101.121094 16.382812 C 100.195312 16.382812 99.617188 16.648438 99.273438 17.183594 C 98.925781 17.722656 98.761719 18.984375 98.761719 20.980469 L 98.761719 22.160156 Z M 98.753906 22.160156 "/>
<path style=" stroke:none;fill-rule:nonzero;fill:rgb(99.215686%,70.980392%,8.235294%);fill-opacity:1;" d="M 110.816406 30.871094 L 110.816406 13.785156 L 115.234375 13.785156 L 115.234375 15.75 C 115.769531 14.867188 116.414062 14.238281 117.179688 13.875 C 117.949219 13.511719 118.957031 13.332031 120.210938 13.332031 C 121.191406 13.332031 122.066406 13.519531 122.824219 13.898438 C 123.585938 14.28125 124.121094 14.808594 124.441406 15.484375 C 125.0625 14.71875 125.738281 14.164062 126.488281 13.832031 C 127.242188 13.496094 128.132812 13.332031 129.171875 13.332031 C 130.78125 13.332031 132.003906 13.703125 132.835938 14.453125 C 133.660156 15.203125 134.082031 16.300781 134.082031 17.746094 L 134.082031 30.871094 L 129.417969 30.871094 L 129.417969 19.957031 C 129.417969 18.613281 129.253906 17.738281 128.925781 17.339844 C 128.59375 16.945312 127.984375 16.746094 127.09375 16.746094 C 126.273438 16.746094 125.6875 16.96875 125.335938 17.425781 C 124.980469 17.878906 124.796875 18.6875 124.796875 19.859375 L 124.796875 30.863281 L 120.101562 30.863281 L 120.101562 19.761719 C 120.101562 18.605469 119.9375 17.820312 119.605469 17.390625 C 119.277344 16.960938 118.714844 16.746094 117.914062 16.746094 C 117.074219 16.746094 116.460938 16.976562 116.082031 17.433594 C 115.703125 17.886719 115.515625 18.644531 115.515625 19.703125 L 115.515625 30.863281 L 110.816406 30.863281 Z M 110.816406 30.871094 "/>
<path style=" stroke:none;fill-rule:nonzero;fill:rgb(99.215686%,70.980392%,8.235294%);fill-opacity:1;" d="M 146.082031 25.007812 L 150.5625 25.007812 L 150.578125 25.347656 L 150.597656 25.667969 C 150.597656 27.625 150.035156 29.0625 148.914062 29.96875 C 147.789062 30.878906 146.015625 31.332031 143.582031 31.332031 C 142.3125 31.332031 141.246094 31.199219 140.378906 30.9375 C 139.511719 30.671875 138.792969 30.257812 138.226562 29.699219 C 137.574219 29.0625 137.101562 28.230469 136.824219 27.207031 C 136.691406 26.710938 136.589844 26.015625 136.515625 25.109375 C 136.441406 24.199219 136.410156 23.09375 136.410156 21.789062 C 136.410156 19.695312 136.523438 18.207031 136.765625 17.324219 C 137.003906 16.441406 137.410156 15.707031 137.996094 15.121094 C 138.570312 14.535156 139.339844 14.097656 140.289062 13.800781 C 140.777344 13.652344 141.296875 13.535156 141.863281 13.460938 C 142.425781 13.378906 143.046875 13.347656 143.707031 13.347656 C 144.960938 13.347656 146.058594 13.503906 146.988281 13.824219 C 147.921875 14.148438 148.683594 14.632812 149.277344 15.277344 C 149.769531 15.832031 150.132812 16.550781 150.367188 17.433594 C 150.472656 17.851562 150.554688 18.414062 150.613281 19.117188 C 150.671875 19.816406 150.703125 20.644531 150.703125 21.601562 L 150.703125 22.898438 L 141.34375 22.898438 L 141.289062 23.308594 L 141.289062 23.984375 C 141.289062 25.613281 141.46875 26.742188 141.824219 27.394531 C 142.179688 28.046875 142.796875 28.367188 143.671875 28.367188 C 144.546875 28.367188 145.125 28.105469 145.503906 27.566406 C 145.882812 27.039062 146.074219 26.179688 146.074219 25.019531 Z M 141.296875 20.164062 L 145.917969 20.164062 L 145.917969 19.4375 C 145.917969 18.265625 145.742188 17.457031 145.40625 17.019531 C 145.066406 16.582031 144.457031 16.351562 143.589844 16.351562 C 142.722656 16.351562 142.160156 16.574219 141.800781 17.027344 C 141.4375 17.480469 141.253906 18.28125 141.253906 19.4375 L 141.269531 19.6875 L 141.289062 20.15625 Z M 141.296875 20.164062 "/>
</g>
</svg>
