<svg viewBox="0 0 182 130" fill="none" xmlns="http://www.w3.org/2000/svg">
<path d="M176.4 0H5.6C2.50721 0 0 1.27919 0 2.85714V127.143C0 128.721 2.50721 130 5.6 130H176.4C179.493 130 182 128.721 182 127.143V2.85714C182 1.27919 179.493 0 176.4 0Z" fill="#F5F6FA"/>
<path d="M75.791 83.527C74.2143 83.5114 72.6829 82.9981 71.4154 82.0603C70.1479 81.1225 69.2091 79.8082 68.733 78.305L68.663 78.07C68.4396 77.3513 68.3233 76.6036 68.318 75.851V61.894L63.484 78.471C63.1808 79.6387 63.3418 80.8785 63.9333 81.9299C64.5247 82.9814 65.5006 83.7628 66.656 84.11L97.47 92.587C98.0383 92.7392 98.6312 92.7769 99.2142 92.6981C99.7972 92.6192 100.359 92.4253 100.866 92.1275C101.374 91.8298 101.817 91.4342 102.17 90.9638C102.523 90.4933 102.78 89.9573 102.924 89.387L104.724 83.523L75.791 83.527Z" fill="#D9E1EE"/>
<path d="M81.365 63.066C82.1747 63.066 82.9663 62.8259 83.6395 62.376C84.3128 61.9262 84.8375 61.2868 85.1474 60.5387C85.4572 59.7906 85.5383 58.9675 85.3803 58.1733C85.2224 57.3791 84.8325 56.6497 84.2599 56.0771C83.6873 55.5045 82.9579 55.1146 82.1637 54.9567C81.3695 54.7987 80.5464 54.8798 79.7983 55.1896C79.0502 55.4995 78.4108 56.0242 77.961 56.6975C77.5111 57.3707 77.271 58.1623 77.271 58.972C77.2726 60.0573 77.7044 61.0977 78.4719 61.8651C79.2393 62.6326 80.2797 63.0644 81.365 63.066Z" fill="#D9E1EE"/>
<path d="M106.22 48.737H75.515C74.1584 48.7391 72.8579 49.279 71.8987 50.2384C70.9395 51.1978 70.3999 52.4984 70.398 53.855V76.372C70.3999 77.7286 70.9395 79.0292 71.8987 79.9886C72.8579 80.948 74.1584 81.4879 75.515 81.49H106.22C107.577 81.4881 108.878 80.9483 109.837 79.9889C110.796 79.0295 111.336 77.7288 111.338 76.372V53.855C111.336 52.4982 110.796 51.1975 109.837 50.2381C108.878 49.2787 107.577 48.7389 106.22 48.737ZM75.515 52.831H106.22C106.492 52.831 106.752 52.9389 106.944 53.1309C107.136 53.323 107.244 53.5834 107.244 53.855V68.387L100.778 60.845C100.436 60.4523 100.014 60.1369 99.5411 59.9198C99.0678 59.7027 98.5537 59.5889 98.033 59.586C97.5104 59.5886 96.9948 59.7056 96.5223 59.9288C96.0498 60.152 95.6319 60.476 95.298 60.878L87.698 70.003L85.221 67.532C84.5474 66.8595 83.6344 66.4818 82.6825 66.4818C81.7306 66.4818 80.8177 66.8595 80.144 67.532L74.494 73.18V53.855C74.494 53.5839 74.6015 53.3239 74.7929 53.132C74.9843 52.94 75.2439 52.8318 75.515 52.831Z" fill="#D9E1EE"/>
</svg>
