<svg viewBox="0 0 130 182" fill="none" xmlns="http://www.w3.org/2000/svg">
<path d="M126 0H4C1.79086 0 0 1.79086 0 4V178C0 180.209 1.79086 182 4 182H126C128.209 182 130 180.209 130 178V4C130 1.79086 128.209 0 126 0Z" fill="#F5F6FA"/>
<path d="M53.791 103.527C52.2143 103.511 50.6829 102.998 49.4154 102.06C48.1479 101.122 47.2091 99.8082 46.733 98.305L46.663 98.07C46.4396 97.3513 46.3233 96.6036 46.318 95.851V81.894L41.484 98.471C41.1808 99.6387 41.3418 100.878 41.9333 101.93C42.5247 102.981 43.5006 103.763 44.656 104.11L75.47 112.587C76.0383 112.739 76.6312 112.777 77.2142 112.698C77.7972 112.619 78.3588 112.425 78.8662 112.128C79.3736 111.83 79.8168 111.434 80.1701 110.964C80.5234 110.493 80.7796 109.957 80.924 109.387L82.724 103.523L53.791 103.527Z" fill="#D9E1EE"/>
<path d="M59.365 83.066C60.1747 83.066 60.9663 82.8259 61.6395 82.376C62.3128 81.9262 62.8375 81.2868 63.1474 80.5387C63.4572 79.7906 63.5383 78.9675 63.3803 78.1733C63.2224 77.3791 62.8325 76.6497 62.2599 76.0771C61.6873 75.5045 60.9579 75.1146 60.1637 74.9567C59.3695 74.7987 58.5464 74.8798 57.7983 75.1896C57.0502 75.4995 56.4108 76.0242 55.961 76.6975C55.5111 77.3707 55.271 78.1623 55.271 78.972C55.2726 80.0573 55.7044 81.0977 56.4719 81.8651C57.2393 82.6326 58.2797 83.0644 59.365 83.066Z" fill="#D9E1EE"/>
<path d="M84.22 68.737H53.515C52.1584 68.7391 50.8579 69.279 49.8987 70.2384C48.9395 71.1978 48.3999 72.4984 48.398 73.855V96.372C48.3999 97.7286 48.9395 99.0292 49.8987 99.9886C50.8579 100.948 52.1584 101.488 53.515 101.49H84.22C85.5768 101.488 86.8775 100.948 87.8369 99.9889C88.7963 99.0295 89.3362 97.7288 89.338 96.372V73.855C89.3362 72.4982 88.7963 71.1975 87.8369 70.2381C86.8775 69.2787 85.5768 68.7389 84.22 68.737ZM53.515 72.831H84.22C84.4916 72.831 84.752 72.9389 84.9441 73.1309C85.1361 73.323 85.244 73.5834 85.244 73.855V88.387L78.778 80.845C78.4361 80.4523 78.0144 80.1369 77.5411 79.9198C77.0678 79.7027 76.5537 79.5889 76.033 79.586C75.5104 79.5886 74.9948 79.7056 74.5223 79.9288C74.0498 80.152 73.6319 80.476 73.298 80.878L65.698 90.003L63.221 87.532C62.5474 86.8595 61.6344 86.4818 60.6825 86.4818C59.7306 86.4818 58.8177 86.8595 58.144 87.532L52.494 93.18V73.855C52.494 73.5839 52.6015 73.3239 52.7929 73.132C52.9843 72.94 53.2439 72.8318 53.515 72.831Z" fill="#D9E1EE"/>
</svg>
